<?xml version="1.0" encoding="UTF-8" standalone="no"?>
<svg
   width="1280"
   height="1024"
   viewBox="0 0 959.99955 768.00118"
   version="1.1"
   id="svg1"
   xml:space="preserve"
   xmlns="http://www.w3.org/2000/svg"
   xmlns:svg="http://www.w3.org/2000/svg"><defs
     id="defs1" /><g
     id="layer1"><path
       style="fill:#00d4ff;fill-opacity:1;stroke:#ffffff;stroke-width:0;stroke-dasharray:none"
       id="path1"
       d="m 275.01899,388.92636 c 0.0744,-0.16426 -9.6323,-0.2514 -9.45197,-0.25082 0.20192,6.4e-4 -10.70362,0.0229 -10.58599,0.18699 0.10505,0.14657 5.03386,-8.21611 4.9432,-8.06023 -0.10152,0.17454 5.332,-9.28104 5.13105,-9.26123 -0.17945,0.0177 4.59843,8.4675 4.50877,8.31105 -0.1004,-0.17519 5.37162,9.25817 5.45494,9.07424 z" /></g><path
     id="v0.1.3"
     fill="none"
     stroke="#000000"
     stroke-width="0.520112"
     d="m 196.0382,372.45931 c 7.20875,0 12.98199,1.04023 17.31972,3.12067 4.33253,2.08045 7.48961,4.86825 9.46603,8.3686 1.97643,3.50035 2.96464,7.40119 2.96464,11.70251 0,4.30133 -1.15985,8.41021 -3.48475,12.32665 -2.3249,3.91645 -5.93447,7.10993 -10.82352,9.57526 -4.88905,2.46013 -11.21361,3.68759 -18.97888,3.68759 -4.99307,0 -45.99868,-0.19764 -53.32706,-0.10402 0,0 10.40224,-19.24413 10.40224,-19.24413 4.681,0 38.93556,0 41.99382,0 2.77219,0 5.05548,-0.48371 6.85507,-1.45632 1.80479,-0.9674 2.70978,-2.38731 2.70978,-4.26491 0,-1.04023 -0.31206,-1.96082 -0.9362,-2.7566 -0.62413,-0.79577 -1.71637,-1.3991 -3.2767,-1.82039 -1.56034,-0.41609 -3.83323,-0.62413 -6.81867,-0.62413 0,0 -34.63424,0.52011 -34.63424,0.52011 0,0 6.40258,-11.48407 10.73511,-19.24413 3.12587,0 29.83361,0.21324 29.83361,0.21324 z m 55.8652,47.11693 c 0,0 -0.052,-26.78056 -0.052,-26.78056 0,0 -27.42029,-46.03509 -27.42029,-46.03509 0,0 25.91196,0 25.91196,0 0,0 7.94731,13.55411 14.72437,25.10579 -2.17407,3.75521 -10.25661,17.00246 -10.25661,17.00246 0,0 20.26356,0 20.26356,0 0,0 -8.12935,-13.88179 -10.00695,-17.00246 6.94349,-11.52047 15.12485,-25.10579 15.12485,-25.10579 0,0 23.7223,0 23.7223,0 0,0 -27.47231,46.26394 -27.47231,46.26394 0,0 0,26.55171 0,26.55171 z m 78.45366,-28.80379 c 0,0 0.0832,28.80379 0.0832,28.80379 0,0 -23.92515,0 -23.92515,0 0,0 0,-57.48796 0,-57.48796 z m 75.70226,28.80379 c 0,0 0,-53.78476 0,-53.78476 0,0 -21.32458,0 -21.32458,0 0,0 0,-19.03089 0,-19.03089 0,0 67.19844,0 67.19844,0 0,0 0,19.03089 0,19.03089 0,0 -21.32458,0.11442 -21.32458,0.11442 0,0 0.0624,-5.6224 0.0624,-5.6224 0,0 -24.60649,0 -24.60649,0 0,0 0,5.52358 0,5.52358 0,0 24.51287,0.13523 24.51287,0.13523 0,0 0.0312,53.63393 0.0312,53.63393 z m 99.54939,0 c 0,0 0,-26.83777 0,-26.83777 0,0 3.01665,-0.005 3.01665,-0.005 0,0 0,-20.16993 0,-20.16993 0,0 -3.02185,0.005 -3.02185,0.005 0,0 0.005,-25.80795 0.005,-25.80795 0,0 24.55448,0 24.55448,0 0,0 0,72.81565 0,72.81565 z m -47.22094,0 c 0,0 0,-72.81565 0,-72.81565 0,0 24.53887,0 24.53887,0 0,0 -0.005,25.81315 -0.005,25.81315 0,0 -3.07906,-0.026 -3.07906,-0.026 0,0 -0.0364,20.18553 -0.0364,20.18553 0,0 3.12067,0.005 3.12067,0.005 0,0 0,26.83777 0,26.83777 z m 75.82709,0 c 0,0 31.83604,-72.81565 31.83604,-72.81565 0,0 24.12799,0 24.12799,0 0,0 31.83084,72.81565 31.83084,72.81565 0,0 -25.38146,0 -25.38146,0 0,0 -18.79164,-48.89051 -18.79164,-48.89051 0,0 -18.6564,48.89051 -18.6564,48.89051 z m 91.64889,0 c 0,0 0,-72.81565 0,-72.81565 0,0 24.53888,0 24.53888,0 0,0 0,72.81565 0,72.81565 z m 60.93628,-37.01636 c 0,0 0.0104,-16.98165 0.0104,-16.98165 0,0 8.95113,0.11963 8.95113,0.11963 3.39633,0 5.90847,0.76456 7.54162,2.28849 1.62795,1.52393 2.44452,3.59917 2.44452,6.23614 0,2.63697 -0.81657,4.72262 -2.44452,6.24654 -1.63315,1.52393 -4.14529,2.28329 -7.54162,2.28329 -0.0208,0 -8.379,-0.17683 -8.96153,-0.19244 -0.0156,1.20146 -0.0728,18.71362 -0.0728,18.71362 0,0 6.82906,0.0156 6.82906,0.0156 0,0 12.29545,18.28713 12.29545,18.28713 0,0 26.20843,0 26.20843,0 0,0 -15.19247,-21.34018 -15.76459,-22.13595 3.2819,-1.52913 7.4584,-4.58739 10.15258,-8.70668 2.69938,-4.05687 4.05167,-8.89391 4.05167,-14.51111 0,-8.45702 -2.91262,-15.15086 -8.73267,-20.07632 -5.82526,-4.92546 -14.31868,-7.38558 -25.48548,-7.38558 0,0 -34.01011,0 -34.01011,0 0,0 0,72.81564 0,72.81564 0,0 24.53887,0 24.53887,0 0,0 -0.0884,-18.30273 -0.0884,-18.30273 0,0 -24.53367,-18.594 -24.53367,-18.594 z m 52.96818,37.01636 c 0,0 0,-72.81565 0,-72.81565 0,0 81.05422,0 81.05422,0 0,0 -10.40224,18.72402 -10.40224,18.72402 0,0 -46.52399,-0.21324 -46.52399,-0.21324 0,0 0,35.79409 0,35.79409 0,0 26.49969,0.43689 26.49969,0.43689 0,0 -10.40223,18.20391 -10.40223,18.20391 z m 33.30796,-28.08604 c 0,0 -0.0936,-17.6838 -0.0936,-17.6838 0,0 17.57458,-0.0624 17.57458,-0.0624 0,0 -0.0312,17.6838 -0.0312,17.6838 z M 484.24252,372.56854 c 0,0 0,20.22194 0,20.22194 0,0 19.63942,-0.0624 19.63942,-0.0624 0,0 0.0936,-20.15953 0.0936,-20.15953 z M 169.9702,365.51062 c 5.50278,-9.85612 10.46465,-18.75003 10.46465,-18.75003 0,0 40.56871,0 40.56871,0 0,0 0,18.51078 0,18.51078 0,0 -49.93072,0.21324 -51.03336,0.23925 z m 136.54493,-7.74447 c 0,0 0,-11.00556 0,-11.00556 0,0 20.17514,0 20.17514,0 0,0 27.67515,33.12592 27.67515,33.12592 0,0 0,-33.12592 0,-33.12592 0,0 23.92514,0 23.92514,0 0,0 0,72.81565 0,72.81565 0,0 -20.19074,0 -20.19074,0 z"
     style="fill:#00000f;fill-opacity:1" /><path
     id="Path"
     fill="none"
     stroke="#000000"
     stroke-width="0.825286"
     d="m 149.15503,456.73102 c 0,0 3.80457,0 3.80457,0 0,0 0,40.48853 0,40.48853 0,0 -3.80457,0 -3.80457,0 z m 43.98773,18.54418 c -0.033,-0.2641 0.76752,-0.95734 2.40984,-2.07972 1.64232,-1.11414 3.63126,-1.67533 5.95856,-1.67533 2.32731,0 4.38227,0.85004 6.16489,2.55013 1.78261,1.70834 2.66567,3.98613 2.66567,6.84987 0,0 0,16.2994 0,16.2994 0,0 -3.7468,0 -3.7468,0 0,0 0,-16.2994 0,-16.2994 0,-1.69183 -0.55294,-3.08657 -1.64232,-4.19245 -1.08112,-1.10588 -2.39333,-1.65883 -3.92836,-1.65883 -1.54328,0 -2.91326,0.5777 -4.11817,1.74136 -1.20492,1.1554 -1.80738,2.49236 -1.80738,4.00263 0,0 0,16.40669 0,16.40669 0,0 -3.7468,0 -3.7468,0 0,0 0,-16.40669 0,-16.40669 0,-1.55979 -0.55294,-2.91325 -1.65057,-4.0439 -1.09763,-1.13889 -2.40983,-1.70009 -3.96137,-1.70009 -1.54329,0 -2.89676,0.5777 -4.06041,1.74136 -1.1554,1.14715 -1.72485,2.48411 -1.72485,4.00263 0,0 0,16.40669 0,16.40669 0,0 -3.75505,0 -3.75505,0 0,0 0,-25.14646 0,-25.14646 0,0 3.75505,0 3.75505,0 0,0 -0.50342,2.43459 -0.50342,2.43459 -0.18156,-0.32186 0.47866,-0.89956 1.98069,-1.7331 1.50202,-0.83354 3.08656,-1.25443 4.73714,-1.25443 1.65057,0 3.23512,0.56944 4.74539,1.71659 1.51027,1.13064 2.25303,1.81563 2.22827,2.03846 z m 46.10873,-3.20211 c 0,0 0,25.14646 0,25.14646 0,0 -3.7468,0 -3.7468,0 0,0 0.2971,-3.53223 0.2971,-3.53223 0.0908,0.27235 -0.90781,1.02336 -2.99579,2.25304 -2.08797,1.23792 -4.31624,1.84864 -6.69307,1.84864 -3.63125,0 -6.75083,-1.2957 -9.34223,-3.8706 -2.5914,-2.57489 -3.8871,-5.66971 -3.8871,-9.26796 0,-3.6065 1.2957,-6.69306 3.8871,-9.2597 2.5914,-2.58315 5.71098,-3.87059 9.34223,-3.87059 2.37683,0 4.64636,0.63547 6.82512,1.90641 2.17875,1.26268 3.1856,2.06321 3.00404,2.40158 0,0 -0.4374,-3.75505 -0.4374,-3.75505 z m -22.61284,12.62687 c 0,2.57489 0.94083,4.80317 2.83899,6.70132 1.8899,1.89816 4.12643,2.83899 6.71782,2.83899 2.58315,0 4.79491,-0.94083 6.6353,-2.83899 1.84864,-1.8899 2.77296,-4.12643 2.77296,-6.72608 0,-2.59965 -0.93257,-4.84443 -2.79772,-6.75084 -1.85689,-1.90641 -4.06866,-2.85549 -6.6353,-2.85549 -2.57489,0 -4.80316,0.95734 -6.69306,2.88851 -1.89816,1.92291 -2.83899,4.16769 -2.83899,6.74258 z m 26.40915,-27.8699 c 0,0 3.75505,0 3.75505,0 0,0 0,21.9526 0,21.9526 0,0 7.64215,-6.70957 7.64215,-6.70957 0,0 5.31484,0 5.31484,0 0,0 -11.82635,10.34083 -11.82635,10.34083 0,0 14.1454,14.80563 14.1454,14.80563 0,0 -5.11677,0 -5.11677,0 0,0 -10.15927,-10.56366 -10.15927,-10.56366 0,0 0,10.56366 0,10.56366 0,0 -3.75505,0 -3.75505,0 z m 29.90011,41.00845 c 0,0 -0.46216,0 -0.46216,0 -3.53222,0 -6.61054,-1.32045 -9.21844,-3.96962 -2.60791,-2.64917 -3.91186,-5.74399 -3.91186,-9.27622 0,-3.53222 1.2957,-6.57752 3.8871,-9.15242 2.5914,-2.58314 5.80176,-3.87059 9.61458,-3.87059 3.82107,0 7.32028,1.76611 10.49764,5.29008 0,0 -15.93628,15.74646 -15.93628,15.74646 1.41124,1.12239 3.02055,1.68358 4.84443,1.68358 1.83214,0 3.48271,-0.42089 4.95172,-1.27094 1.47726,-0.85004 3.33415,-2.94627 5.58718,-6.29693 0,0 0,6.47024 0,6.47024 -2.81422,3.10308 -6.09886,4.64636 -9.85391,4.64636 z m -0.51168,-22.72012 c -2.43459,0 -4.59684,0.94908 -6.48674,2.83899 -1.88991,1.8899 -2.83899,4.0604 -2.83899,6.5115 0,2.4511 0.56945,4.31625 1.70009,5.60369 0,0 13.29536,-13.20457 13.29536,-13.20457 -1.34522,-1.16366 -3.24338,-1.74961 -5.66972,-1.74961 z m 50.34245,-20.6569 c 0,0 20.87148,42.75806 20.87148,42.75806 0,0 -4.13468,0 -4.13468,0 0,0 -7.26252,-14.63232 -7.26252,-14.63232 0,0 -19.19615,0 -19.19615,0 0,0 -7.17173,14.63232 -7.17173,14.63232 0,0 -3.93662,0 -3.93662,0 z m -0.1568,8.34364 c 0,0 -7.88148,16.18385 -7.88148,16.18385 0,0 15.85374,0 15.85374,0 z m 23.77648,-6.07411 c 0,0 3.80457,0 3.80457,0 0,0 0,40.48853 0,40.48853 0,0 -3.80457,0 -3.80457,0 z m 33.11873,18.28008 c -0.62722,0 -1.17191,0.20633 -1.64232,0.59421 -0.45391,0.38788 -0.67674,0.85004 -0.67674,1.37823 0,0.53643 0.30536,1.09763 0.94083,1.68358 0.61896,0.58595 1.46076,1.16365 2.50062,1.74961 1.04811,0.5777 2.14574,1.22142 3.30114,1.94767 1.1554,0.72625 2.1705,1.68359 3.03705,2.8885 0.88306,1.20492 1.32046,2.60791 1.32046,4.20071 0,2.3273 -0.8748,4.29148 -2.6079,5.90905 -1.72485,1.61756 -3.80457,2.42634 -6.22266,2.42634 -1.54328,0 -2.98753,-0.34662 -4.33275,-1.02336 -1.35347,-0.68499 -2.39333,-1.70009 -3.12783,-3.03705 0,0 0,-7.6339 0,-7.6339 2.45935,5.43039 4.89394,8.14558 7.30378,8.14558 1.50202,0 2.7482,-0.44566 3.73854,-1.33697 0.9986,-0.90781 1.49377,-1.8899 1.49377,-2.94627 0,-1.06462 -0.32186,-1.98068 -0.96559,-2.75645 -0.64372,-0.78402 -1.48551,-1.47726 -2.52537,-2.08798 -1.03986,-0.61896 -2.12924,-1.26268 -3.25163,-1.92291 -1.12239,-0.66023 -2.12098,-1.51853 -3.02054,-2.56664 -0.89131,-1.04811 -1.33697,-2.32731 -1.33697,-3.82933 0,-1.50202 0.59421,-2.76471 1.79087,-3.78806 1.19667,-1.02335 2.69869,-1.53503 4.51432,-1.53503 1.82388,0 3.47445,0.80878 4.96822,2.43459 0,0 0,5.98332 0,5.98332 -2.17876,-3.25162 -3.91186,-4.87744 -5.1993,-4.87744 z m 36.34559,-2.93801 c 0,0 0,25.14646 0,25.14646 0,0 -3.7468,0 -3.7468,0 0,0 0.2971,-3.53223 0.2971,-3.53223 0.0908,0.27235 -0.90781,1.02336 -2.99578,2.25304 -2.08798,1.23792 -4.31625,1.84864 -6.69307,1.84864 -3.63126,0 -6.75084,-1.2957 -9.34224,-3.8706 -2.5914,-2.57489 -3.8871,-5.66971 -3.8871,-9.26796 0,-3.6065 1.2957,-6.69306 3.8871,-9.2597 2.5914,-2.58315 5.71098,-3.87059 9.34224,-3.87059 2.37682,0 4.64636,0.63547 6.82511,1.90641 2.17876,1.26268 3.18561,2.06321 3.00404,2.40158 0,0 -0.4374,-3.75505 -0.4374,-3.75505 z m -22.61284,12.62687 c 0,2.57489 0.94083,4.80317 2.83899,6.70132 1.8899,1.89816 4.12643,2.83899 6.71783,2.83899 2.58314,0 4.79491,-0.94083 6.63529,-2.83899 1.84864,-1.8899 2.77297,-4.12643 2.77297,-6.72608 0,-2.59965 -0.93258,-4.84443 -2.79772,-6.75084 -1.8569,-1.90641 -4.06866,-2.85549 -6.6353,-2.85549 -2.57489,0 -4.80317,0.95734 -6.69307,2.88851 -1.89816,1.92291 -2.83899,4.16769 -2.83899,6.74258 z m 44.92857,-12.62687 c 0,0 3.7468,0 3.7468,0 0,0 0,23.36384 0,23.36384 0,3.33416 -1.1554,6.16489 -3.48271,8.48394 -2.31905,2.32731 -5.15804,3.48271 -8.51695,3.48271 -4.03565,0 -7.31203,-1.65883 -9.81265,-4.97648 0,0 0.25584,-6.53626 0.25584,-6.53626 2.08797,3.55698 3.82933,5.777 5.22406,6.6518 1.38648,0.88306 2.83073,1.32046 4.33275,1.32046 2.22827,0 4.16769,-0.81703 5.80176,-2.44285 1.62581,-1.61756 2.4511,-3.55698 2.4511,-5.82651 0,0 0.1403,0 0.1403,0 -0.61897,1.46075 -3.23512,2.19526 -7.83196,2.19526 -3.11959,0 -5.79351,-1.09763 -8.02178,-3.30115 -2.21177,-2.21176 -3.32591,-4.86093 -3.32591,-7.9475 0,0 0,-14.46726 0,-14.46726 0,0 3.75505,0 3.75505,0 0,0 0,14.46726 0,14.46726 0,2.06321 0.75101,3.87059 2.26954,5.40562 1.51853,1.52678 3.31765,2.2943 5.38087,2.2943 2.06321,0 3.84583,-0.76752 5.36435,-2.2943 1.51028,-1.53503 2.26954,-3.34241 2.26954,-5.40562 z m 29.64427,0.0495 c 0,0 0,25.09695 0,25.09695 0,0 -3.75505,0 -3.75505,0 0,0 0,-25.09695 0,-25.09695 z m -1.88165,-3.50746 c -1.70009,0 -2.54188,-0.80878 -2.54188,-2.43459 0,-1.62582 0.84179,-2.4346 2.54188,-2.4346 1.69183,0 2.54188,0.80878 2.54188,2.4346 0,1.62581 -0.85005,2.43459 -2.54188,2.43459 z m 10.29132,28.60441 c 0,0 -3.75506,0 -3.75506,0 0,0 0,-25.14646 0,-25.14646 0,0 3.75506,0 3.75506,0 0,0 0,1.23793 0,1.23793 0.58595,-1.18842 3.20211,-1.79087 7.84022,-1.79087 3.16084,0 5.81826,1.08937 7.96401,3.27638 2.14574,2.18701 3.22686,4.83618 3.22686,7.95576 0,0 0,14.46726 0,14.46726 0,0 -3.75505,0 -3.75505,0 0,0 0,-14.46726 0,-14.46726 0,-2.06322 -0.72625,-3.86234 -2.17875,-5.38912 -1.4525,-1.52678 -3.21036,-2.2943 -5.27358,-2.2943 -2.05496,0 -3.87884,0.76752 -5.45514,2.30255 -1.58455,1.54329 -2.36857,3.33416 -2.36857,5.38087 z m 33.01144,-3.23512 c 0,0 0,3.54873 0,3.54873 -3.41669,0 -6.08236,-0.91607 -7.99702,-2.73995 -1.92292,-1.81563 -2.88025,-4.14294 -2.88025,-6.97367 0,0 0,-25.00616 0,-25.00616 0,0 3.75505,0 3.75505,0 0,0 0,9.30922 0,9.30922 0,0 7.06445,0 7.06445,0 0,0 0,3.54873 0,3.54873 0,0 -7.06445,0 -7.06445,0 0,0 0,12.14821 0,12.14821 0,1.79087 0.58595,3.25988 1.76611,4.42353 1.18016,1.16366 2.96278,1.74136 5.35611,1.74136 z m 14.59105,3.85408 c 0,0 -0.46216,0 -0.46216,0 -3.53222,0 -6.61054,-1.32045 -9.21844,-3.96962 -2.6079,-2.64917 -3.91186,-5.74399 -3.91186,-9.27622 0,-3.53222 1.2957,-6.57752 3.8871,-9.15242 2.5914,-2.58314 5.80176,-3.87059 9.61458,-3.87059 3.82107,0 7.32029,1.76611 10.49764,5.29008 0,0 -15.93627,15.74646 -15.93627,15.74646 1.41124,1.12239 3.02054,1.68358 4.84443,1.68358 1.83213,0 3.4827,-0.42089 4.95171,-1.27094 1.47726,-0.85004 3.33416,-2.94627 5.58719,-6.29693 0,0 0,6.47024 0,6.47024 -2.81423,3.10308 -6.09887,4.64636 -9.85392,4.64636 z m -0.51167,-22.72012 c -2.4346,0 -4.59685,0.94908 -6.48675,2.83899 -1.88991,1.8899 -2.83899,4.0604 -2.83899,6.5115 0,2.4511 0.56945,4.31625 1.70009,5.60369 0,0 13.29536,-13.20457 13.29536,-13.20457 -1.34522,-1.16366 -3.24337,-1.74961 -5.66971,-1.74961 z m 29.09958,3.67252 c -2.50062,-2.48411 -4.51432,-3.72204 -6.03284,-3.72204 -1.51028,0 -2.85549,0.5777 -4.03565,1.74136 -1.17191,1.14715 -1.74961,2.48411 -1.74961,4.00263 0,0 0,16.40669 0,16.40669 0,0 -3.75505,0 -3.75505,0 0,0 0,-25.14646 0,-25.14646 0,0 3.75505,0 3.75505,0 0,0 -0.56944,2.51712 -0.56944,2.51712 -0.25584,-0.35487 0.36312,-0.94908 1.83213,-1.79087 1.46901,-0.85005 3.11133,-1.27919 4.92696,-1.27919 1.80737,0 3.68902,0.71799 5.62845,2.16224 z m 15.15225,19.0476 c 0,0 -0.46216,0 -0.46216,0 -3.53223,0 -6.61054,-1.32045 -9.21845,-3.96962 -2.6079,-2.64917 -3.91185,-5.74399 -3.91185,-9.27622 0,-3.53222 1.2957,-6.57752 3.88709,-9.15242 2.5914,-2.58314 5.80176,-3.87059 9.61458,-3.87059 3.82108,0 7.32029,1.76611 10.49764,5.29008 0,0 -15.93627,15.74646 -15.93627,15.74646 1.41124,1.12239 3.02055,1.68358 4.84443,1.68358 1.83213,0 3.48271,-0.42089 4.95171,-1.27094 1.47727,-0.85004 3.33416,-2.94627 5.58719,-6.29693 0,0 0,6.47024 0,6.47024 -2.81423,3.10308 -6.09886,4.64636 -9.85391,4.64636 z m -0.51168,-22.72012 c -2.43459,0 -4.59684,0.94908 -6.48675,2.83899 -1.8899,1.8899 -2.83898,4.0604 -2.83898,6.5115 0,2.4511 0.56945,4.31625 1.70009,5.60369 0,0 13.29535,-13.20457 13.29535,-13.20457 -1.34521,-1.16366 -3.24337,-1.74961 -5.66971,-1.74961 z m 19.60054,-0.10729 c -0.62722,0 -1.17191,0.20633 -1.64232,0.59421 -0.45391,0.38788 -0.67673,0.85004 -0.67673,1.37823 0,0.53643 0.30535,1.09763 0.94082,1.68358 0.61897,0.58595 1.46076,1.16365 2.50062,1.74961 1.04811,0.5777 2.14574,1.22142 3.30114,1.94767 1.1554,0.72625 2.1705,1.68359 3.03705,2.8885 0.88306,1.20492 1.32046,2.60791 1.32046,4.20071 0,2.3273 -0.8748,4.29148 -2.6079,5.90905 -1.72485,1.61756 -3.80457,2.42634 -6.22266,2.42634 -1.54328,0 -2.98753,-0.34662 -4.33275,-1.02336 -1.35347,-0.68499 -2.39333,-1.70009 -3.12783,-3.03705 0,0 0,-7.6339 0,-7.6339 2.45935,5.43039 4.89394,8.14558 7.30378,8.14558 1.50202,0 2.7482,-0.44566 3.73854,-1.33697 0.9986,-0.90781 1.49377,-1.8899 1.49377,-2.94627 0,-1.06462 -0.32186,-1.98068 -0.96558,-2.75645 -0.64373,-0.78402 -1.48552,-1.47726 -2.52538,-2.08798 -1.03986,-0.61896 -2.12924,-1.26268 -3.25163,-1.92291 -1.12238,-0.66023 -2.12098,-1.51853 -3.02054,-2.56664 -0.89131,-1.04811 -1.33697,-2.32731 -1.33697,-3.82933 0,-1.50202 0.59421,-2.76471 1.79088,-3.78806 1.19666,-1.02335 2.69868,-1.53503 4.51431,-1.53503 1.82388,0 3.47445,0.80878 4.96822,2.43459 0,0 0,5.98332 0,5.98332 -2.17875,-3.25162 -3.91186,-4.87744 -5.1993,-4.87744 z m 21.61424,18.97333 c 0,0 0,3.54873 0,3.54873 -3.41669,0 -6.08236,-0.91607 -7.99702,-2.73995 -1.92292,-1.81563 -2.88025,-4.14294 -2.88025,-6.97367 0,0 0,-25.00616 0,-25.00616 0,0 3.75505,0 3.75505,0 0,0 0,9.30922 0,9.30922 0,0 7.06445,0 7.06445,0 0,0 0,3.54873 0,3.54873 0,0 -7.06445,0 -7.06445,0 0,0 0,12.14821 0,12.14821 0,1.79087 0.58595,3.25988 1.76611,4.42353 1.18016,1.16366 2.96278,1.74136 5.35611,1.74136 z m 6.44548,-21.86183 c 0,0 0,25.09695 0,25.09695 0,0 -3.75505,0 -3.75505,0 0,0 0,-25.09695 0,-25.09695 z m -1.88165,-3.50746 c -1.70009,0 -2.54188,-0.80878 -2.54188,-2.43459 0,-1.62582 0.84179,-2.4346 2.54188,-2.4346 1.69183,0 2.54188,0.80878 2.54188,2.4346 0,1.62581 -0.85005,2.43459 -2.54188,2.43459 z m 10.29131,28.60441 c 0,0 -3.75505,0 -3.75505,0 0,0 0,-25.14646 0,-25.14646 0,0 3.75505,0 3.75505,0 0,0 0,1.23793 0,1.23793 0.58596,-1.18842 3.20211,-1.79087 7.84022,-1.79087 3.16084,0 5.81827,1.08937 7.96401,3.27638 2.14574,2.18701 3.22687,4.83618 3.22687,7.95576 0,0 0,14.46726 0,14.46726 0,0 -3.75505,0 -3.75505,0 0,0 0,-14.46726 0,-14.46726 0,-2.06322 -0.72626,-3.86234 -2.17876,-5.38912 -1.4525,-1.52678 -3.21036,-2.2943 -5.27358,-2.2943 -2.05496,0 -3.87884,0.76752 -5.45514,2.30255 -1.58455,1.54329 -2.36857,3.33416 -2.36857,5.38087 z m 44.04552,-25.14645 c 0,0 3.75505,0 3.75505,0 0,0 0,21.9361 0,21.9361 0,4.24197 -1.19666,7.61739 -3.58999,10.10975 -2.37683,2.49236 -5.49641,3.73854 -9.34224,3.73854 -2.11273,0 -4.1677,-0.48692 -6.16489,-1.44425 -1.99719,-0.95733 -3.62301,-2.31905 -4.87744,-4.08516 0,0 0,-6.82512 0,-6.82512 2.12098,3.87885 4.0439,6.31344 5.76049,7.31204 1.73311,0.99859 3.49097,1.49376 5.28184,1.49376 2.69869,0 4.9022,-0.90781 6.61054,-2.73169 1.70834,-1.81563 2.56664,-4.34101 2.56664,-7.56787 0,0 0.33837,-0.2806 0.33837,-0.2806 0.099,0.28885 -0.92432,1.04811 -3.08657,2.27779 -2.154,1.22142 -4.39052,1.83213 -6.69307,1.83213 -3.63126,0 -6.75085,-1.28744 -9.34225,-3.87059 -2.59139,-2.57489 -3.88709,-5.66146 -3.88709,-9.26796 0,-3.6065 1.2957,-6.68481 3.88709,-9.25971 2.5914,-2.58314 5.71099,-3.87059 9.34225,-3.87059 2.40983,0 4.66287,0.61071 6.7756,1.81563 2.10448,1.21317 3.10307,1.97243 3.00404,2.26128 z m -18.91556,12.62687 c 0,2.59965 0.94083,4.85268 2.83898,6.75909 1.88991,1.88991 4.12644,2.83073 6.71784,2.83073 2.58314,0 4.79491,-0.94082 6.6353,-2.83073 1.84864,-1.8899 2.77296,-4.14293 2.77296,-6.75909 0,-2.61616 -0.92432,-4.86093 -2.77296,-6.74258 -1.84039,-1.88991 -4.05216,-2.83899 -6.6353,-2.83899 -2.5914,0 -4.82793,0.94908 -6.71784,2.83899 -1.89815,1.8899 -2.83898,4.13468 -2.83898,6.74258 z m 54.92278,9.28447 c 0,0 0,3.54873 0,3.54873 -3.41668,0 -6.08235,-0.91607 -7.99702,-2.73995 -1.92291,-1.81563 -2.88024,-4.14294 -2.88024,-6.97367 0,0 0,-25.00616 0,-25.00616 0,0 3.75505,0 3.75505,0 0,0 0,9.30922 0,9.30922 0,0 7.06444,0 7.06444,0 0,0 0,3.54873 0,3.54873 0,0 -7.06444,0 -7.06444,0 0,0 0,12.14821 0,12.14821 0,1.79087 0.58595,3.25988 1.76611,4.42353 1.18016,1.16366 2.96278,1.74136 5.3561,1.74136 z m 5.77701,3.23512 c 0,0 -3.75505,0 -3.75505,0 0,0 0,-40.43901 0,-40.43901 0,0 3.75505,0 3.75505,0 0,0 0,16.40668 0,16.40668 0.56119,-1.11413 3.16084,-1.66707 7.79895,-1.66707 3.15259,0 5.81826,1.08937 7.98051,3.27638 2.1705,2.18701 3.25163,4.83618 3.25163,7.95576 0,0 0,14.46726 0,14.46726 0,0 -3.75505,0 -3.75505,0 0,0 0,-14.46726 0,-14.46726 0,-2.09623 -0.73451,-3.90361 -2.20352,-5.41388 -1.469,-1.51853 -3.23512,-2.26954 -5.29833,-2.26954 -2.05496,0 -3.87059,0.76752 -5.43038,2.30255 -1.56805,1.53503 -2.34381,3.3259 -2.34381,5.38087 z m 27.07763,-25.09695 c 0,0 0,25.09695 0,25.09695 0,0 -3.75505,0 -3.75505,0 0,0 0,-25.09695 0,-25.09695 z m -1.88166,-3.50746 c -1.70008,0 -2.54188,-0.80878 -2.54188,-2.43459 0,-1.62582 0.8418,-2.4346 2.54188,-2.4346 1.69184,0 2.54189,0.80878 2.54189,2.4346 0,1.62581 -0.85005,2.43459 -2.54189,2.43459 z m 10.29132,28.60441 c 0,0 -3.75505,0 -3.75505,0 0,0 0,-25.14646 0,-25.14646 0,0 3.75505,0 3.75505,0 0,0 0,1.23793 0,1.23793 0.58595,-1.18842 3.20211,-1.79087 7.84022,-1.79087 3.16084,0 5.81826,1.08937 7.96401,3.27638 2.14574,2.18701 3.22686,4.83618 3.22686,7.95576 0,0 0,14.46726 0,14.46726 0,0 -3.75505,0 -3.75505,0 0,0 0,-14.46726 0,-14.46726 0,-2.06322 -0.72625,-3.86234 -2.17875,-5.38912 -1.45251,-1.52678 -3.21036,-2.2943 -5.27358,-2.2943 -2.05496,0 -3.87884,0.76752 -5.45514,2.30255 -1.58455,1.54329 -2.36857,3.33416 -2.36857,5.38087 z m 44.0455,-25.14646 c 0,0 3.75505,0 3.75505,0 0,0 0,21.9361 0,21.9361 0,4.24197 -1.19666,7.61739 -3.58999,10.10975 -2.37683,2.49236 -5.49641,3.73854 -9.34224,3.73854 -2.11272,0 -4.16768,-0.48692 -6.16488,-1.44425 -1.99719,-0.95733 -3.623,-2.31905 -4.87744,-4.08516 0,0 0,-6.82512 0,-6.82512 2.12099,3.87885 4.04391,6.31344 5.7605,7.31204 1.7331,0.99859 3.49095,1.49376 5.28182,1.49376 2.69869,0 4.9022,-0.90781 6.61054,-2.73169 1.70834,-1.81563 2.56664,-4.34101 2.56664,-7.56787 0,0 0.33837,-0.2806 0.33837,-0.2806 0.099,0.28885 -0.92432,1.04811 -3.08657,2.27779 -2.154,1.22142 -4.39052,1.83213 -6.69307,1.83213 -3.63125,0 -6.75083,-1.28744 -9.34223,-3.87059 -2.5914,-2.57489 -3.88709,-5.66146 -3.88709,-9.26796 0,-3.6065 1.29569,-6.68481 3.88709,-9.25971 2.5914,-2.58314 5.71098,-3.87059 9.34223,-3.87059 2.40983,0 4.66287,0.61071 6.7756,1.81563 2.10448,1.21317 3.10307,1.97243 3.00404,2.26128 z m -18.91554,12.62687 c 0,2.59965 0.94082,4.85268 2.83898,6.75909 1.8899,1.88991 4.12643,2.83073 6.71782,2.83073 2.58314,0 4.79491,-0.94082 6.6353,-2.83073 1.84864,-1.8899 2.77296,-4.14293 2.77296,-6.75909 0,-2.61616 -0.92432,-4.86093 -2.77296,-6.74258 -1.84039,-1.88991 -4.05216,-2.83899 -6.6353,-2.83899 -2.59139,0 -4.82792,0.94908 -6.71782,2.83899 -1.89816,1.8899 -2.83898,4.13468 -2.83898,6.74258 z m 32.48324,-9.68886 c -0.62722,0 -1.1719,0.20633 -1.64232,0.59421 -0.4539,0.38788 -0.67673,0.85004 -0.67673,1.37823 0,0.53643 0.30535,1.09763 0.94082,1.68358 0.61897,0.58595 1.46076,1.16365 2.50062,1.74961 1.04811,0.5777 2.14574,1.22142 3.30114,1.94767 1.1554,0.72625 2.17051,1.68359 3.03706,2.8885 0.88305,1.20492 1.32045,2.60791 1.32045,4.20071 0,2.3273 -0.8748,4.29148 -2.6079,5.90905 -1.72485,1.61756 -3.80457,2.42634 -6.22266,2.42634 -1.54328,0 -2.98753,-0.34662 -4.33275,-1.02336 -1.35347,-0.68499 -2.39333,-1.70009 -3.12783,-3.03705 0,0 0,-7.6339 0,-7.6339 2.45935,5.43039 4.89394,8.14558 7.30378,8.14558 1.50202,0 2.7482,-0.44566 3.73854,-1.33697 0.9986,-0.90781 1.49377,-1.8899 1.49377,-2.94627 0,-1.06462 -0.32186,-1.98068 -0.96558,-2.75645 -0.64373,-0.78402 -1.48552,-1.47726 -2.52538,-2.08798 -1.03986,-0.61896 -2.12923,-1.26268 -3.25162,-1.92291 -1.12239,-0.66023 -2.12099,-1.51853 -3.02055,-2.56664 -0.89131,-1.04811 -1.33696,-2.32731 -1.33696,-3.82933 0,-1.50202 0.5942,-2.76471 1.79087,-3.78806 1.19666,-1.02335 2.69868,-1.53503 4.51431,-1.53503 1.82388,0 3.47445,0.80878 4.96822,2.43459 0,0 0,5.98332 0,5.98332 -2.17875,-3.25162 -3.91185,-4.87744 -5.1993,-4.87744 z"
     style="display:none;fill:#5b6675;fill-opacity:1;stroke:#000000;stroke-opacity:0" /><text
     xml:space="preserve"
     style="font-size:56.0001px;font-family:'M PLUS 1 Code';-inkscape-font-specification:'M PLUS 1 Code';text-align:center;writing-mode:lr-tb;direction:ltr;text-anchor:middle;display:inline;fill:#5b6675;fill-opacity:1;stroke:#0058d1;stroke-width:2.25;paint-order:stroke fill markers"
     x="478.93576"
     y="489.659"
     id="text1"><tspan
       id="tspan1"
       style="font-style:normal;font-variant:normal;font-weight:normal;font-stretch:normal;font-size:56.0001px;font-family:'Space Grotesk';-inkscape-font-specification:'Space Grotesk';fill:#5b6675;fill-opacity:1;stroke:none;stroke-width:2.25"
       x="478.93576"
       y="489.659">rogue intellect</tspan></text></svg>
