<?xml version="1.0" encoding="UTF-8" standalone="no"?>
<svg
   width="209.99998"
   height="210"
   viewBox="0 0 157.49992 157.50024"
   version="1.1"
   id="svg1"
   xml:space="preserve"
   xmlns="http://www.w3.org/2000/svg"
   xmlns:svg="http://www.w3.org/2000/svg"><defs
     id="defs1" /><g
     id="g13"
     transform="translate(35.379599,39.000043)"
     style="fill:none;fill-opacity:1;stroke:#ffffff;stroke-width:1.5;stroke-dasharray:none;stroke-opacity:1"><path
       style="fill:none;fill-opacity:1;stroke:#ffffff;stroke-width:1.5;stroke-dasharray:none;stroke-opacity:1"
       d="m 31.234082,19.010103 c 5.50278,-9.85612 10.46465,-18.75003 10.46465,-18.75003 0,0 40.56871,0 40.56871,0 0,0 0,18.51078 0,18.51078 0,0 -49.93072,0.21324 -51.03336,0.23925 z"
       id="path12" /><path
       style="fill:none;fill-opacity:1;stroke:#ffffff;stroke-width:1.5;stroke-dasharray:none;stroke-opacity:1"
       d="m 57.302082,25.958793 c 7.20875,0 12.98199,1.04023 17.31972,3.12067 4.33253,2.08045 7.48961,4.86825 9.46603,8.3686 1.97643,3.50035 2.96464,7.40119 2.96464,11.70251 0,4.30133 -1.15985,8.41021 -3.48475,12.32665 -2.3249,3.91645 -5.93447,7.10993 -10.82352,9.57526 -4.88905,2.46013 -11.21361,3.68759 -18.97888,3.68759 -4.99307,0 -45.9986797,-0.19764 -53.3270597,-0.10402 0,0 10.4022397,-19.24413 10.4022397,-19.24413 4.681,0 38.93556,0 41.99382,0 2.77219,0 5.05548,-0.48371 6.85507,-1.45632 1.80479,-0.9674 2.70978,-2.38731 2.70978,-4.26491 0,-1.04023 -0.31206,-1.96082 -0.9362,-2.7566 -0.62413,-0.79577 -1.71637,-1.3991 -3.2767,-1.82039 -1.56034,-0.41609 -3.83323,-0.62413 -6.81867,-0.62413 0,0 -34.63424,0.52011 -34.63424,0.52011 0,0 6.40258,-11.48407 10.73511,-19.24413 3.12587,0 29.83361,0.21324 29.83361,0.21324 z"
       id="v0.1.3" /></g></svg>
